<?xml version="1.0" encoding="UTF-8" standalone="no"?>
<svg
   viewBox="0 0 640 640"
   version="1.1"
   id="svg1"
   sodipodi:docname="favicon.svg"
   inkscape:version="1.4.3 (0d15f75, 2025-12-25)"
   xmlns:inkscape="http://www.inkscape.org/namespaces/inkscape"
   xmlns:sodipodi="http://sodipodi.sourceforge.net/DTD/sodipodi-0.dtd"
   xmlns="http://www.w3.org/2000/svg"
   xmlns:svg="http://www.w3.org/2000/svg">
  <defs
     id="defs1" />
  <sodipodi:namedview
     id="namedview1"
     pagecolor="#ffffff"
     bordercolor="#000000"
     borderopacity="0.25"
     inkscape:showpageshadow="2"
     inkscape:pageopacity="0.0"
     inkscape:pagecheckerboard="0"
     inkscape:deskcolor="#d1d1d1"
     inkscape:zoom="0.40085451"
     inkscape:cx="395.40531"
     inkscape:cy="405.38399"
     inkscape:window-width="1440"
     inkscape:window-height="744"
     inkscape:window-x="0"
     inkscape:window-y="30"
     inkscape:window-maximized="1"
     inkscape:current-layer="svg1" />
  <!--!Font Awesome Free 7.2.0 by @fontawesome - https://fontawesome.com License - https://fontawesome.com/license/free Copyright 2026 Fonticons, Inc.-->
  <path
     d="M127.9 78.4C127.1 70.2 120.2 64 112 64C103.8 64 96.9 70.2 96 78.3L81.9 213.7C80.6 219.7 80 225.8 80 231.9C80 277.8 115.1 315.5 160 319.6L160 544C160 561.7 174.3 576 192 576C209.7 576 224 561.7 224 544L224 319.6C268.9 315.5 304 277.8 304 231.9C304 225.8 303.4 219.7 302.1 213.7L287.9 78.3C287.1 70.2 280.2 64 272 64C263.8 64 256.9 70.2 256.1 78.4L242.5 213.9C241.9 219.6 237.1 224 231.4 224C225.6 224 220.8 219.6 220.2 213.8L207.9 78.6C207.2 70.3 200.3 64 192 64C183.7 64 176.8 70.3 176.1 78.6L163.8 213.8C163.3 219.6 158.4 224 152.6 224C146.8 224 142 219.6 141.5 213.9L127.9 78.4zM512 64C496 64 384 96 384 240L384 352C384 387.3 412.7 416 448 416L480 416L480 544C480 561.7 494.3 576 512 576C529.7 576 544 561.7 544 544L544 96C544 78.3 529.7 64 512 64z"
     id="path1"
     style="fill:#f9f9f9" />
</svg>
